HIERARCHY
ROOT Hips
{
	OFFSET 62.890800 8.863803 43.568401
	CHANNELS 6 Xposition Yposition Zposition Zrotation Xrotation Yrotation
	JOINT Chest
	{
		OFFSET -0.160400 1.630001 7.806301
		CHANNELS 6 Xposition Yposition Zposition Zrotation Xrotation Yrotation
		JOINT Chest2
		{
			OFFSET 0.000000 0.000000 3.197998
			CHANNELS 6 Xposition Yposition Zposition Zrotation Xrotation Yrotation
			JOINT Neck
			{
				OFFSET 0.000000 0.000001 7.440701
				CHANNELS 6 Xposition Yposition Zposition Zrotation Xrotation Yrotation
				JOINT Head
				{
					OFFSET 0.000000 0.000000 2.173901
					CHANNELS 6 Xposition Yposition Zposition Zrotation Xrotation Yrotation
					End Site
					{
						OFFSET 0.000000 0.000001 10.420303
					}
				}
			}
			JOINT LeftCollar
			{
				OFFSET 2.426399 -1.880099 4.759399
				CHANNELS 6 Xposition Yposition Zposition Zrotation Xrotation Yrotation
				JOINT LeftShoulder
				{
					OFFSET 4.420197 0.000000 0.000000
					CHANNELS 6 Xposition Yposition Zposition Zrotation Xrotation Yrotation
					JOINT LeftElbow
					{
						OFFSET 0.000000 -0.000001 -10.347099
						CHANNELS 6 Xposition Yposition Zposition Zrotation Xrotation Yrotation
						JOINT LeftWrist
						{
							OFFSET 0.000000 -0.000001 -12.496300
							CHANNELS 6 Xposition Yposition Zposition Zrotation Xrotation Yrotation
							End Site
							{
								OFFSET 0.000000 0.000000 -2.173901
							}
						}
					}
				}
			}
			JOINT RightCollar
			{
				OFFSET -2.781502 -1.903799 5.072601
				CHANNELS 6 Xposition Yposition Zposition Zrotation Xrotation Yrotation
				JOINT RightShoulder
				{
					OFFSET -4.012100 0.000000 0.000000
					CHANNELS 6 Xposition Yposition Zposition Zrotation Xrotation Yrotation
					JOINT RightElbow
					{
						OFFSET 0.000000 -0.000001 -10.346600
						CHANNELS 6 Xposition Yposition Zposition Zrotation Xrotation Yrotation
						JOINT RightWrist
						{
							OFFSET 0.000000 -0.000001 -12.562599
							CHANNELS 6 Xposition Yposition Zposition Zrotation Xrotation Yrotation
							End Site
							{
								OFFSET 0.000000 0.000000 -2.173901
							}
						}
					}
				}
			}
		}
	}
	JOINT LeftHip
	{
		OFFSET 2.047997 -0.047200 -2.693199
		CHANNELS 6 Xposition Yposition Zposition Zrotation Xrotation Yrotation
		JOINT LeftKnee
		{
			OFFSET 0.000000 -0.000001 -18.824400
			CHANNELS 6 Xposition Yposition Zposition Zrotation Xrotation Yrotation
			JOINT LeftAnkle
			{
				OFFSET 0.000000 -0.000002 -19.078199
				CHANNELS 6 Xposition Yposition Zposition Zrotation Xrotation Yrotation
				End Site
				{
					OFFSET 0.000000 -9.342100 0.000001
				}
			}
		}
	}
	JOINT RightHip
	{
		OFFSET -2.129898 -0.022300 -2.538300
		CHANNELS 6 Xposition Yposition Zposition Zrotation Xrotation Yrotation
		JOINT RightKnee
		{
			OFFSET 0.000000 -0.000001 -18.644600
			CHANNELS 6 Xposition Yposition Zposition Zrotation Xrotation Yrotation
			JOINT RightAnkle
			{
				OFFSET 0.000000 -0.000002 -18.801399
				CHANNELS 6 Xposition Yposition Zposition Zrotation Xrotation Yrotation
				End Site
				{
					OFFSET 0.000000 -8.914600 0.000001
				}
			}
		}
	}
}
MOTION
Frames: 7
Frame Time: 0.041667
9.143181 -41.063297 39.723042 -353.488517 -1.971063 -5.543148 -0.160403 1.630006 7.806305 -5.342179 -6.420369 1.461367 -0.000001 0.000003 3.198006 3.265258 -2.845513 0.487694 -0.000003 -0.000000 7.440704 -23.944454 -7.515220 7.428340 -0.000007 0.000004 2.173906 0.861940 -9.886254 -3.962769 2.426402 -1.880105 4.759393 3.821948 1.920420 -11.369469 4.420192 -0.000001 0.000002 -6.751474 -17.262103 -108.932665 0.000000 0.000001 -10.347087 388.294506 0.788074 -0.014949 0.000008 -0.000013 -12.496303 241.636793 180.479375 186.764501 -2.781503 -1.903802 5.072602 -0.249660 4.397427 -1.360012 -4.012094 -0.000002 -0.000001 -12.566263 13.289683 84.844405 0.000004 -0.000001 -10.346599 -43.412105 -0.520736 1.293639 -0.000003 0.000000 -12.562600 985.393577 -183.507061 156.579273 2.047995 -0.047198 -2.693198 -67.283217 31.462778 -7.277175 0.000006 -0.000000 -18.824400 205.633241 182.879927 -177.848536 -0.000000 -0.000005 -19.078194 48.180984 10.387800 76.651812 -2.129896 -0.022291 -2.538294 -613.223727 39.234201 -26.446482 -0.000003 0.000001 -18.644602 519.519925 181.598556 172.357816 -0.000001 -0.000005 -18.801399 -78.670419 -10.171986 -83.445821
9.127693 -41.089603 39.729649 -353.328172 -1.845778 -5.434144 -0.160402 1.630005 7.806304 -5.553532 -6.574424 1.759466 0.000005 0.000005 3.198008 3.572709 -2.815527 0.513861 -0.000008 0.000008 7.440697 -23.813243 -7.586135 7.314082 -0.000009 0.000006 2.173912 1.229438 -10.099938 -4.010208 2.426405 -1.880097 4.759398 3.591187 1.963825 -11.436413 4.420200 0.000001 0.000011 -6.070728 -16.739151 -107.942390 -0.000002 -0.000003 -10.347092 388.412668 0.702113 -0.057511 0.000016 -0.000009 -12.496309 241.450083 180.467818 186.669384 -2.781504 -1.903795 5.072602 -0.548355 4.306000 -1.031854 -4.012094 0.000000 -0.000002 -12.748674 12.638958 85.397623 0.000008 -0.000002 -10.346592 -43.650831 -0.551515 1.258529 -0.000004 0.000004 -12.562603 985.625694 -183.469645 156.418149 2.047994 -0.047203 -2.693201 -67.400491 31.561727 -7.362514 -0.000006 0.000000 -18.824402 205.626752 182.998253 -177.947998 -0.000007 -0.000003 -19.078196 48.351326 10.422072 76.825920 -2.129896 -0.022301 -2.538301 -615.132629 39.464454 -25.128348 -0.000003 -0.000003 -18.644602 517.791177 181.052564 171.900972 0.000009 -0.000002 -18.801401 -75.531620 -10.390908 -82.219850
9.110401 -41.117096 39.733749 -353.172034 -1.718093 -5.313276 -0.160404 1.629995 7.806307 -5.760095 -6.730588 2.025981 0.000003 0.000007 3.198005 3.891087 -2.733848 0.541382 -0.000006 0.000000 7.440705 -23.731921 -7.701602 7.195173 -0.000001 0.000003 2.173908 1.591738 -10.307505 -4.078202 2.426398 -1.880097 4.759401 3.457820 1.913155 -11.452429 4.420194 0.000002 -0.000003 -5.552482 -16.176477 -106.989504 -0.000002 -0.000007 -10.347090 388.481107 0.713703 -0.064111 -0.000009 -0.000008 -12.496301 241.252117 180.698228 186.624797 -2.781500 -1.903800 5.072606 -0.836308 4.164605 -0.687371 -4.012099 0.000000 -0.000005 -12.937320 11.961330 85.966441 0.000006 -0.000005 -10.346600 -43.751924 -0.518881 1.104027 -0.000001 0.000001 -12.562599 985.801968 -183.548001 156.348986 2.047997 -0.047215 -2.693198 -66.160744 31.340507 -8.181399 -0.000002 0.000001 -18.824398 206.087407 182.953843 -177.881567 -0.000002 -0.000002 -19.078196 46.723142 10.767215 75.624012 -2.129898 -0.022304 -2.538296 -617.439265 39.726518 -23.551604 0.000001 0.000002 -18.644598 515.744852 180.388274 171.429511 0.000010 -0.000002 -18.801395 -71.718687 -10.462902 -80.724005
9.091587 -41.145794 39.735748 -353.016879 -1.591319 -5.179933 -0.160403 1.629997 7.806313 -5.965657 -6.885797 2.261105 0.000009 0.000008 3.197995 4.225662 -2.708027 0.573096 -0.000011 0.000008 7.440701 -23.699939 -7.761178 7.113212 -0.000006 0.000006 2.173902 1.948353 -10.508591 -4.166033 2.426402 -1.880095 4.759398 3.306190 1.936116 -11.460753 4.420194 0.000005 0.000000 -5.065807 -15.629609 -106.039657 0.000001 -0.000001 -10.347095 388.453130 0.722582 -0.073673 -0.000009 -0.000003 -12.496302 241.183651 180.420553 186.547493 -2.781502 -1.903797 5.072603 -1.116115 4.081440 -0.327597 -4.012093 0.000001 0.000004 -13.204384 11.246078 86.441098 -0.000005 -0.000001 -10.346597 -44.057275 -0.730977 1.181147 -0.000002 0.000002 -12.562598 986.293742 -183.439538 156.193640 2.047986 -0.047207 -2.693192 -65.979866 31.399264 -8.432683 0.000000 0.000005 -18.824398 206.276412 183.040013 -177.923559 0.000004 0.000001 -19.078199 46.407850 10.842432 75.528922 -2.129901 -0.022301 -2.538291 -619.172713 39.825788 -22.344655 0.000001 -0.000004 -18.644604 513.931847 179.852131 171.057252 0.000004 -0.000003 -18.801394 -68.643381 -10.422101 -79.409200
9.071594 -41.175793 39.735947 -352.860085 -1.467752 -5.034284 -0.160401 1.630003 7.806295 -6.173108 -7.037070 2.465542 0.000007 -0.000000 3.197997 4.574653 -2.684100 0.607490 -0.000002 0.000010 7.440701 -23.719533 -7.814071 7.047660 -0.000004 0.000004 2.173908 2.296887 -10.833548 -4.290612 2.426402 -1.880095 4.759400 3.136799 1.979028 -11.458872 4.420196 -0.000001 0.000006 -4.686103 -15.081606 -105.045734 -0.000008 -0.000006 -10.347097 388.346525 0.766742 -0.179021 -0.000009 -0.000001 -12.496292 241.089067 180.765355 186.490406 -2.781502 -1.903792 5.072607 -1.387477 4.001409 0.048143 -4.012094 0.000001 -0.000003 -13.387523 10.495655 87.009684 0.000002 -0.000004 -10.346593 -44.112053 -0.712631 1.113388 0.000005 -0.000011 -12.562596 986.606728 -183.458936 156.173956 2.047994 -0.047204 -2.693200 -65.774729 31.468188 -8.703243 -0.000002 0.000002 -18.824406 206.334359 183.115049 -177.984498 -0.000003 0.000001 -19.078201 46.187662 10.920735 75.446304 -2.129898 -0.022295 -2.538296 -620.859606 39.876342 -21.176377 -0.000004 0.000000 -18.644598 512.044201 179.310825 170.716002 0.000004 -0.000000 -18.801401 -65.568730 -10.293645 -78.000221
9.050888 -41.206993 39.734947 -352.688538 -1.362372 -5.063923 -0.160402 1.629994 7.806310 -6.373135 -7.191201 2.829204 0.000000 -0.000001 3.198009 4.937959 -2.661893 0.644773 -0.000009 0.000002 7.440700 -23.789694 -7.860618 6.999120 -0.000004 0.000010 2.173910 2.618042 -10.889751 -4.416858 2.426400 -1.880102 4.759390 2.950462 2.040913 -11.446705 4.420190 0.000003 0.000002 -4.260024 -14.607801 -104.094549 0.000001 -0.000004 -10.347095 388.142985 0.766946 -0.190234 -0.000000 0.000008 -12.496299 241.003334 180.892574 186.392721 -2.781501 -1.903800 5.072605 -2.371330 3.798181 0.477733 -4.012095 0.000005 0.000004 -12.872811 9.823986 87.642214 -0.000005 -0.000004 -10.346599 -44.368000 -0.769567 1.040472 -0.000005 -0.000002 -12.562599 987.205708 -183.467596 156.114451 2.047994 -0.047209 -2.693192 -65.637073 31.386642 -8.876999 0.000006 -0.000006 -18.824400 206.375286 183.184007 -178.041339 0.000008 -0.000004 -19.078196 45.973399 10.989682 75.375441 -2.129895 -0.022304 -2.538289 -622.483606 40.065623 -20.096530 0.000003 0.000002 -18.644606 510.080604 178.763577 170.406198 0.000001 -0.000003 -18.801397 -62.473684 -10.082562 -76.473086
9.029797 -41.239399 39.732948 -352.524778 -1.251931 -4.898981 -0.160397 1.629995 7.806304 -6.587594 -7.327230 2.978702 0.000007 0.000005 3.198000 5.339095 -2.640974 0.683637 -0.000001 0.000000 7.440700 -23.931981 -7.902590 6.969751 -0.000006 0.000007 2.173903 2.955504 -11.074716 -4.547723 2.426400 -1.880104 4.759401 2.725318 2.119101 -11.421564 4.420199 0.000003 -0.000005 -3.862940 -14.183575 -103.141915 0.000001 -0.000002 -10.347092 387.865952 0.762282 -0.199420 0.000000 -0.000002 -12.496303 240.881429 181.032292 186.269613 -2.781504 -1.903805 5.072604 -1.781994 4.052860 1.145779 -4.012095 -0.000008 -0.000005 -13.878754 8.773274 87.860097 0.000001 -0.000003 -10.346594 -44.470378 -0.872238 0.989317 0.000002 0.000001 -12.562601 987.719229 -183.458690 156.029238 2.047996 -0.047212 -2.693195 -65.469139 31.491420 -9.138842 0.000001 -0.000000 -18.824392 206.383578 183.249413 -178.097579 -0.000000 -0.000007 -19.078199 45.810451 11.042448 75.342123 -2.129897 -0.022303 -2.538300 -624.077991 40.031981 -19.012115 -0.000004 0.000000 -18.644596 508.056299 178.212736 170.130464 0.000004 -0.000004 -18.801399 -59.360710 -9.791045 -74.813487
